<?xml version="1.0" standalone="no"?>
<!DOCTYPE svg PUBLIC "-//W3C//DTD SVG 20010904//EN"
 "http://www.w3.org/TR/2001/REC-SVG-20010904/DTD/svg10.dtd">
<svg version="1.0" xmlns="http://www.w3.org/2000/svg"
 width="387.000000pt" height="403.000000pt" viewBox="0 0 387.000000 403.000000"
 preserveAspectRatio="xMidYMid meet">

<g transform="translate(0.000000,403.000000) scale(0.100000,-0.100000)"
fill="#000000" stroke="none">
<path d="M802 3217 l-802 -802 2 -1025 3 -1025 705 -3 705 -2 427 427 428 428
0 -605 0 -605 800 800 800 800 0 1032 0 1033 -708 0 -707 0 -420 -420 -420
-420 -5 595 -5 595 -803 -803z m2258 -1202 l-795 -795 -1125 0 -1125 0 795
795 795 795 1125 0 1125 0 -795 -795z"/>
</g>
</svg>
